<?xml version="1.0" encoding="UTF-8" standalone="no"?>
<!-- Created with Inkscape (http://www.inkscape.org/) -->

<svg
   width="1920"
   height="1080"
   viewBox="0 0 1920 1080"
   version="1.1"
   id="svg1"
   inkscape:version="1.4.2 (f4327f4, 2025-05-13)"
   sodipodi:docname="NewTitle.svg"
   inkscape:export-filename="CompileTitle.webp"
   inkscape:export-xdpi="96"
   inkscape:export-ydpi="96"
   xmlns:inkscape="http://www.inkscape.org/namespaces/inkscape"
   xmlns:sodipodi="http://sodipodi.sourceforge.net/DTD/sodipodi-0.dtd"
   xmlns="http://www.w3.org/2000/svg"
   xmlns:svg="http://www.w3.org/2000/svg">
  <sodipodi:namedview
     id="namedview1"
     pagecolor="#000000"
     bordercolor="#000000"
     borderopacity="0.25"
     inkscape:showpageshadow="2"
     inkscape:pageopacity="0.0"
     inkscape:pagecheckerboard="0"
     inkscape:deskcolor="#d1d1d1"
     inkscape:document-units="px"
     inkscape:zoom="0.5283659"
     inkscape:cx="736.23222"
     inkscape:cy="440.03597"
     inkscape:window-width="1920"
     inkscape:window-height="1009"
     inkscape:window-x="-8"
     inkscape:window-y="-8"
     inkscape:window-maximized="1"
     inkscape:current-layer="layer1"
     inkscape:export-bgcolor="#000000ff" />
  <defs
     id="defs1" />
  <g
     inkscape:label="ModPic"
     inkscape:groupmode="layer"
     id="layer1"
     transform="translate(-206.09665,49.516729)">
    <g
       id="g9"
       inkscape:label="dude"
       transform="translate(-158.98074)">
      <ellipse
         style="fill:#ffffff;fill-opacity:0;stroke:#ffffff;stroke-width:10.2517;stroke-linecap:round;stroke-linejoin:round;stroke-dasharray:none"
         id="path1"
         cx="841.13184"
         cy="271.21069"
         rx="124.05109"
         ry="151.44664" />
      <rect
         style="fill:#ffffff;fill-opacity:0;stroke:#ffffff;stroke-width:11.6189;stroke-linecap:round;stroke-linejoin:round;stroke-dasharray:none"
         id="rect1"
         width="156.72737"
         height="429.11496"
         x="757.92163"
         y="421.95236"
         ry="80.258301" />
      <path
         style="fill:#ffffff;fill-opacity:0;stroke:#ffffff;stroke-width:13;stroke-linecap:round;stroke-linejoin:round;stroke-dasharray:none"
         d="M 860.52662,687.42997 C 779.99315,698.65439 717.65715,622.81793 713.53298,535.6257 c 8.59997,-48.57096 23.635,-76.79645 51.39484,-63.49467 20.4334,-37.1065 34.72428,-48.31536 72.8417,-50.56969 58.13978,6.17978 74.54003,45.6426 78.95911,78.95911 31.68489,27.00582 73.05958,48.62841 74.61072,92.3752 -2.15316,27.88126 11.25925,50.57401 51.85765,64.20473"
         id="path2"
         sodipodi:nodetypes="ccccccc" />
      <path
         style="fill:#ffffff;fill-opacity:0;stroke:#ffffff;stroke-width:13;stroke-linecap:round;stroke-linejoin:round;stroke-dasharray:none"
         d="m 701.48679,1002.1034 78.03929,-176.25095 c 14.13147,21.37383 34.37964,22.74153 54.87796,26.67085 22.21232,-0.97411 46.81661,-7.45764 61.28207,-28.3269 l 65.29158,183.5849"
         id="path3"
         sodipodi:nodetypes="ccccc" />
      <ellipse
         style="fill:#ffffff;fill-opacity:0;stroke:#ffffff;stroke-width:5;stroke-linecap:round;stroke-linejoin:round;stroke-dasharray:none"
         id="path4"
         cx="782.60162"
         cy="253.61212"
         rx="17.979963"
         ry="45.423069" />
      <ellipse
         style="fill:#ffffff;fill-opacity:0;stroke:#ffffff;stroke-width:5;stroke-linecap:round;stroke-linejoin:round;stroke-dasharray:none"
         id="path5"
         cx="894.38495"
         cy="254.79504"
         rx="17.506807"
         ry="46.369381" />
      <path
         style="fill:#ffffff;fill-opacity:0;stroke:#ffffff;stroke-width:5;stroke-linecap:round;stroke-linejoin:round;stroke-dasharray:none"
         d="m 769.28596,353.28588 c 4.29571,10.42811 15.3966,28.14167 23.15875,22.73451 21.74897,-15.15047 23.41121,-0.0437 41.731,11.022 14.039,11.91805 25.50738,-20.71686 47.94817,-10.05434 11.04944,5.25003 15.84068,-12.17813 15.40731,-23.45863"
         id="path6"
         sodipodi:nodetypes="cscsc" />
    </g>
    <g
       id="g10"
       inkscape:label="table"
       transform="matrix(1.3771788,0,0,0.79818448,-798.91232,207.67001)">
      <path
         style="fill:#ffffff;fill-opacity:1;stroke:#ffffff;stroke-width:13;stroke-linecap:round;stroke-linejoin:bevel;stroke-dasharray:none;stroke-opacity:1"
         d="m 1254.6124,1002.7844 5.6779,-334.99519"
         id="path7" />
      <path
         style="fill:#ffffff;fill-opacity:1;stroke:#ffffff;stroke-width:13;stroke-linecap:round;stroke-linejoin:bevel;stroke-dasharray:none;stroke-opacity:1"
         d="m 1173.2295,665.89658 596.1777,-1.89262"
         id="path8" />
      <path
         style="fill:#ffffff;fill-opacity:1;stroke:#ffffff;stroke-width:13;stroke-linecap:round;stroke-linejoin:bevel;stroke-dasharray:none;stroke-opacity:1"
         d="M 1716.4137,1016.0328 V 660.2187 c 0.1577,0.63088 0.3321,1.25782 0.4731,1.89263 0.089,0.39954 -0.084,0.40461 -0.2366,0.70974 -0.2494,0.49894 0.3792,1.98656 0,2.36578 -0.056,0.0558 -0.1577,0 -0.2366,0"
         id="path9" />
    </g>
    <path
       style="fill:#ffffff;fill-opacity:1;stroke:#ffffff;stroke-width:13;stroke-linecap:round;stroke-linejoin:bevel;stroke-dasharray:none;stroke-opacity:1"
       d="m 1062.5108,628.99034 0.9463,74.7588 h -39.7452 l 1.8926,24.60416 92.7388,0.94632 -30.282,-24.60417 -0.9463,-105.98715 h -24.6042 z"
       id="path10" />
    <path
       style="fill:#ffffff;fill-opacity:1;stroke:#ffffff;stroke-width:2;stroke-linecap:round;stroke-linejoin:bevel;stroke-dasharray:none;stroke-opacity:1"
       d="m 1135.4884,723.56433 v -52.99358 l 43.5305,21.76522 223.3301,0.94631 -22.743,1.57805 -10.7597,3.67449 -11.2963,-2.84068 -9.4615,6.09508 -16.6766,-5.69022 -8.3775,9.6182 -13.0475,-7.02049 -9.772,10.59812 -13.3228,-7.98104 -9.764,13.66047 -15.0499,-9.66524 -9.0326,11.381 -17.1356,-8.82646 -14.8783,13.84559 -23.658,-6.99722 -18.3548,13.58397 -10.4095,-6.6242 z"
       id="path11"
       sodipodi:nodetypes="cccccccccccccccccccccc" />
    <text
       xml:space="preserve"
       style="font-size:378.865px;font-family:'Ink Free';-inkscape-font-specification:'Ink Free';text-align:start;writing-mode:lr-tb;direction:ltr;text-anchor:start;fill:#ffffff;fill-opacity:1;stroke:#0014de;stroke-width:5.16632;stroke-linecap:round;stroke-linejoin:bevel;stroke-dasharray:none;stroke-opacity:1"
       x="855.35889"
       y="564.67944"
       id="text11"><tspan
         sodipodi:role="line"
         id="tspan11"
         x="855.35889"
         y="564.67944"
         style="stroke-width:5.16632"><tspan
           style="fill:#8ae200;fill-opacity:1;stroke:#8ae200;stroke-width:5.16632;stroke-opacity:1"
           id="tspan14">S</tspan><tspan
           style="fill:#0014de;fill-opacity:1;stroke:#0014de;stroke-width:5.16632;stroke-opacity:1"
           id="tspan15">T</tspan><tspan
           style="fill:#ff117e;fill-opacity:1;stroke:#ff117e;stroke-width:5.16632;stroke-opacity:1"
           id="tspan16">D</tspan></tspan></text>
    <text
       xml:space="preserve"
       style="font-size:89.6557px;font-family:'Ink Free';-inkscape-font-specification:'Ink Free';text-align:start;writing-mode:lr-tb;direction:ltr;text-anchor:start;fill:#ff117e;fill-opacity:1;stroke:#ff117e;stroke-width:1.22257;stroke-linecap:round;stroke-linejoin:bevel;stroke-dasharray:none;stroke-opacity:1"
       x="845.35907"
       y="129.74274"
       id="text17"><tspan
         sodipodi:role="line"
         id="tspan17"
         x="845.35907"
         y="129.74274"
         style="stroke-width:1.22257">Styyx Tooling for Devs - </tspan><tspan
         sodipodi:role="line"
         x="845.35907"
         y="241.81236"
         id="tspan18"
         style="stroke-width:1.22257">Former Althro's Dev Tools</tspan></text>
    <path
       style="fill:#ff117e;fill-opacity:1;stroke:#ff117e;stroke-width:2;stroke-linecap:round;stroke-linejoin:bevel;stroke-dasharray:none;stroke-opacity:1"
       id="path18"
       d="m 629.924,432.80903 c -8.46057,1.52864 -16.89959,3.13177 -25.33784,4.79751 -11.55589,2.2235 -23.25945,3.4535 -34.99855,4.11419 -8.82298,0.80559 -17.61387,1.87201 -26.38449,3.11958 -11.99286,2.13126 -24.12837,3.27777 -36.12303,5.39186 -5.41067,1.55031 -11.36449,1.94401 -16.34422,4.79038 -2.19307,1.25354 -3.39873,2.57631 -5.20582,4.27254 -4.84099,5.50282 -5.69419,12.83189 -8.01829,19.50598 -2.92187,7.88767 -8.02249,14.46553 -12.94061,21.16846 -6.41518,7.54986 -11.27418,16.12811 -16.10543,24.72966 -3.33116,6.52676 -6.80287,12.98505 -10.32638,19.4103 -2.66539,3.96903 -4.43109,8.42445 -7.0499,12.41237 -5.07738,5.59012 -10.96896,10.45918 -17.41829,14.37807 -6.97119,4.7392 -14.91496,7.66888 -22.37907,11.49923 -5.9104,2.8836 -12.14693,5.35689 -17.51136,9.20194 -4.77908,3.0532 -8.94588,6.89149 -13.49088,10.27314 -5.31959,4.10692 -10.70333,8.12688 -16.21708,11.96958 -6.65566,4.93171 -9.90959,8.22268 -12.37747,16.19274 -1.40203,5.4777 -1.67919,11.13267 -1.7389,16.75879 0.3881,6.37057 -2.48427,12.19822 -4.25732,18.17798 -1.43793,6.78683 -3.87174,13.17246 -6.49318,19.55824 -1.87231,4.11311 -1.28295,8.14836 -0.004,12.30049 2.04064,5.69253 3.43544,11.52628 4.33902,17.49756 1.41643,8.95448 8.8701,15.75808 19.47394,14.71819 6.54742,-1.63923 11.87308,-6.31723 17.17956,-10.28391 5.78361,-4.44468 9.33594,-10.60632 12.17273,-17.1786 2.95531,-6.44236 4.76984,-13.18625 5.90693,-20.15604 0.95103,-5.69558 2.33807,-11.29962 3.8526,-16.86826 1.47578,-4.63199 3.50183,-9.05291 6.18452,-13.10648 2.07986,-3.50654 4.83318,-6.3331 8.25343,-8.51917 3.05755,-2.18334 6.16471,-4.21945 9.43426,-6.06207 2.98032,-1.6819 6.13074,-3.0614 9.0672,-4.82845 4.902,-3.27383 10.26168,-5.62678 15.86707,-7.38512 5.53738,-1.30302 10.55298,-4.16319 15.76207,-6.37384 10.39171,-4.1357 20.86076,-8.02018 30.82356,-13.13058 6.60789,-3.83491 13.01451,-8.26331 17.74637,-14.33072 3.07522,-4.43362 4.94825,-9.60055 6.94842,-14.58569 2.9173,-6.30789 6.89479,-12.09682 10.68684,-17.91091 4.3154,-6.55031 8.81348,-12.98437 13.23023,-19.47183 4.51931,-7.06667 8.76053,-14.38797 12.49295,-21.91044 2.56911,-4.05874 4.15107,-8.56896 5.92303,-12.99612 1.6365,-3.88373 3.98869,-7.36891 6.21042,-10.92797 3.68413,-3.95837 7.74332,-7.61664 11.9457,-11.0214 3.81853,-3.51232 8.14575,-5.44937 13.20369,-6.24499 5.36019,-1.38068 10.9135,-1.50365 16.34713,-2.38525 4.36458,-1.20946 8.68369,-2.51134 12.98381,-3.91084 3.89499,-1.36996 6.16352,-4.55079 8.65065,-7.60448 1.55789,-3.15554 4.12846,-5.50799 6.4668,-8.05173 1.9982,-2.21232 4.44899,-3.86219 6.74777,-5.72093 1.88453,-1.60541 3.98947,-2.86813 5.98724,-4.31273 0,0 -12.62301,-8.03708 -12.62301,-8.03708 v 0 c -2.05729,1.40729 -4.07912,2.82389 -6.01821,4.39357 -2.39775,1.8606 -4.82396,3.65214 -6.87458,5.91475 -2.37087,2.55455 -4.85686,5.02449 -6.48925,8.15426 -2.30809,2.88439 -4.47104,5.74805 -8.17699,6.8938 -4.20977,1.4098 -8.46687,2.68626 -12.77913,3.7476 -5.46538,0.76718 -10.99323,1.12592 -16.38158,2.40736 -5.20721,1.02666 -9.63924,3.28829 -13.58199,6.90285 -4.28334,3.55621 -8.56685,7.21217 -12.26238,11.38283 -2.32058,3.60631 -4.63844,7.21343 -6.33962,11.16637 -1.77591,4.3882 -3.32199,8.87873 -5.76395,12.96738 -3.57557,7.52013 -7.75974,14.8013 -12.32238,21.75801 -4.45033,6.47393 -8.96848,12.91158 -13.22355,19.51097 -3.86167,5.88653 -8.04593,11.66083 -10.96048,18.08676 -1.96734,4.85267 -3.81179,9.8738 -6.77086,14.21847 -4.52738,5.91556 -10.75871,10.20789 -17.12561,13.95664 -9.99176,5.07863 -20.47576,8.96128 -30.95201,12.91466 -5.21135,2.16449 -10.24566,4.86341 -15.74847,6.23837 -5.65215,1.92464 -11.07985,4.38861 -16.14131,7.57768 -2.98399,1.67001 -6.08767,3.12116 -9.06664,4.80115 -3.29871,1.83796 -6.33178,4.04782 -9.4413,6.18571 -3.51261,2.3846 -6.45174,5.32604 -8.5858,9.03182 -2.7061,4.22011 -4.82935,8.75358 -6.36178,13.53159 -1.57274,5.61525 -2.87385,11.30782 -3.85774,17.05599 -1.03798,6.87348 -2.82181,13.49366 -5.74809,19.82704 -2.68049,6.36278 -6.11358,12.29929 -11.73011,16.53919 -5.10211,3.8013 -10.33666,8.46424 -16.82495,9.40653 -6.27697,-0.4733 -1.71063,-0.40505 9.44015,6.71404 0.383,0.24452 -0.91786,-0.20063 -1.27553,-0.48089 -1.59333,-1.24851 -1.7911,-3.96432 -2.28807,-5.68968 -0.88563,-6.01447 -2.1546,-11.92458 -4.14745,-17.67836 -1.30658,-3.81432 -2.20433,-7.51911 -0.49934,-11.39718 2.53614,-6.47282 4.92134,-12.93691 6.43061,-19.75006 1.80609,-6.08688 4.91853,-11.98818 4.58345,-18.47193 0.0439,-5.50445 0.14755,-11.04865 1.45503,-16.42903 2.24286,-7.48145 5.55831,-10.82294 11.85626,-15.36171 5.5264,-3.86535 10.94197,-7.88602 16.31082,-11.96664 4.51595,-3.39068 8.71073,-7.18472 13.47464,-10.2335 5.37001,-3.70743 11.47959,-6.18938 17.30042,-9.09399 7.48473,-3.84501 15.42968,-6.83064 22.39841,-11.62474 6.5761,-4.12478 12.69755,-9.08984 17.95734,-14.80796 2.61801,-4.03482 4.41248,-8.5202 7.06645,-12.54296 3.45821,-6.45809 6.76015,-13.00113 10.10647,-19.51775 4.73488,-8.59241 9.71139,-17.01367 16.02332,-24.56418 5.01933,-6.81117 10.30234,-13.44151 13.25473,-21.48656 2.29591,-6.42754 3.04184,-13.54488 7.71507,-18.85872 1.75428,-1.6133 2.75413,-2.72838 4.89018,-3.88395 4.91607,-2.65952 10.71898,-3.10043 16.00886,-4.60175 11.9729,-2.14462 24.07725,-3.3866 36.07961,-5.35027 8.77394,-1.14075 17.56318,-2.15042 26.37042,-2.99786 11.73283,-0.78707 23.40997,-2.19168 34.97415,-4.35383 8.56276,-1.545 17.10422,-3.18298 25.71426,-4.45308 z" />
  </g>
</svg>
